<svg xmlns="http://www.w3.org/2000/svg" xmlns:xlink="http://www.w3.org/1999/xlink" width="500" zoomAndPan="magnify" viewBox="0 0 375 374.999991" height="500" preserveAspectRatio="xMidYMid meet" version="1.0"><defs><clipPath id="c1d608c8b8"><path d="M 6.125 37.5 L 369.125 37.5 L 369.125 314.25 L 6.125 314.25 Z M 6.125 37.5 " clip-rule="nonzero"/></clipPath></defs><g clip-path="url(#c1d608c8b8)"><path fill="#ffe8e3" d="M 287.886719 115.464844 C 287.886719 115.464844 344.597656 129.125 361.84375 170.761719 C 379.09375 212.421875 365.835938 274.710938 315.394531 294.6875 C 264.976562 314.644531 236.351562 286.546875 236.351562 286.546875 C 236.351562 286.546875 207.078125 323.265625 163.121094 312.15625 C 119.164062 301.070312 113.425781 274.019531 113.425781 274.019531 C 113.425781 274.019531 72.503906 285.1875 37.21875 261.722656 C 1.933594 238.257812 -9.730469 148.464844 37.21875 119.867188 C 84.167969 91.253906 113.425781 110.464844 113.425781 110.464844 C 113.425781 110.464844 117.566406 68.761719 163.121094 46.542969 C 208.671875 24.328125 254.710938 46.988281 271.996094 71.960938 C 289.304688 96.9375 287.886719 115.464844 287.886719 115.464844 Z M 287.886719 115.464844 " fill-opacity="1" fill-rule="evenodd"/></g><path fill="#b38181" d="M 162.105469 216.175781 C 162.105469 216.175781 171.8125 227.304688 185.414062 227.859375 C 199.132812 228.4375 209.644531 216.140625 209.644531 216.140625 C 210.894531 214.644531 210.703125 212.421875 209.199219 211.160156 C 207.703125 209.914062 205.476562 210.101562 204.210938 211.601562 C 204.210938 211.601562 196.230469 221.253906 185.699219 220.816406 C 175.03125 220.371094 167.429688 211.566406 167.429688 211.566406 C 166.148438 210.09375 163.917969 209.941406 162.441406 211.203125 C 160.996094 212.476562 160.820312 214.722656 162.105469 216.175781 Z M 162.105469 216.175781 " fill-opacity="1" fill-rule="evenodd"/><path fill="#fda8a8" d="M 108.386719 183.605469 C 109.203125 183.664062 110.015625 183.75 110.824219 183.863281 C 111.628906 183.976562 112.429688 184.117188 113.222656 184.285156 C 114.015625 184.449219 114.796875 184.644531 115.566406 184.859375 C 116.335938 185.078125 117.089844 185.320312 117.828125 185.589844 C 118.566406 185.855469 119.285156 186.148438 119.984375 186.460938 C 120.683594 186.773438 121.363281 187.109375 122.019531 187.46875 C 122.675781 187.828125 123.304688 188.207031 123.910156 188.605469 C 124.515625 189.003906 125.09375 189.417969 125.640625 189.855469 C 126.191406 190.289062 126.707031 190.742188 127.195312 191.207031 C 127.679688 191.675781 128.132812 192.15625 128.554688 192.652344 C 128.972656 193.148438 129.355469 193.652344 129.707031 194.171875 C 130.054688 194.691406 130.367188 195.21875 130.640625 195.753906 C 130.917969 196.289062 131.152344 196.832031 131.351562 197.382812 C 131.550781 197.933594 131.707031 198.484375 131.828125 199.042969 C 131.949219 199.597656 132.027344 200.15625 132.066406 200.714844 C 132.105469 201.277344 132.105469 201.832031 132.066406 202.390625 C 132.027344 202.945312 131.945312 203.496094 131.824219 204.046875 C 131.707031 204.59375 131.546875 205.132812 131.347656 205.667969 C 131.148438 206.203125 130.910156 206.726562 130.636719 207.242188 C 130.359375 207.757812 130.046875 208.257812 129.699219 208.75 C 129.347656 209.242188 128.964844 209.71875 128.542969 210.183594 C 128.125 210.644531 127.671875 211.089844 127.183594 211.519531 C 126.695312 211.949219 126.179688 212.359375 125.628906 212.753906 C 125.082031 213.144531 124.503906 213.519531 123.898438 213.871094 C 123.292969 214.222656 122.664062 214.550781 122.007812 214.859375 C 121.351562 215.164062 120.671875 215.449219 119.96875 215.707031 C 119.269531 215.96875 118.550781 216.203125 117.8125 216.414062 C 117.074219 216.625 116.320312 216.808594 115.550781 216.964844 C 114.78125 217.125 114 217.257812 113.207031 217.359375 C 112.414062 217.464844 111.613281 217.542969 110.804688 217.59375 C 109.996094 217.644531 109.1875 217.667969 108.371094 217.664062 C 107.554688 217.660156 106.738281 217.628906 105.921875 217.570312 C 105.105469 217.511719 104.292969 217.425781 103.488281 217.3125 C 102.679688 217.199219 101.878906 217.058594 101.085938 216.890625 C 100.292969 216.726562 99.511719 216.53125 98.742188 216.316406 C 97.976562 216.097656 97.222656 215.855469 96.484375 215.585938 C 95.746094 215.320312 95.023438 215.027344 94.324219 214.714844 C 93.625 214.402344 92.945312 214.066406 92.289062 213.707031 C 91.632812 213.347656 91.003906 212.96875 90.398438 212.570312 C 89.792969 212.171875 89.214844 211.757812 88.667969 211.320312 C 88.121094 210.886719 87.601562 210.433594 87.117188 209.96875 C 86.628906 209.5 86.175781 209.019531 85.757812 208.523438 C 85.335938 208.027344 84.953125 207.523438 84.601562 207.003906 C 84.253906 206.484375 83.941406 205.957031 83.667969 205.421875 C 83.390625 204.886719 83.15625 204.34375 82.957031 203.792969 C 82.757812 203.242188 82.601562 202.691406 82.480469 202.132812 C 82.359375 201.578125 82.28125 201.019531 82.242188 200.460938 C 82.203125 199.898438 82.203125 199.34375 82.242188 198.785156 C 82.28125 198.230469 82.363281 197.679688 82.484375 197.128906 C 82.601562 196.582031 82.761719 196.042969 82.960938 195.507812 C 83.160156 194.972656 83.398438 194.449219 83.671875 193.933594 C 83.949219 193.417969 84.261719 192.917969 84.609375 192.425781 C 84.960938 191.933594 85.34375 191.457031 85.765625 190.992188 C 86.183594 190.53125 86.636719 190.085938 87.125 189.65625 C 87.613281 189.226562 88.128906 188.816406 88.679688 188.421875 C 89.226562 188.03125 89.804688 187.65625 90.410156 187.304688 C 91.015625 186.953125 91.644531 186.625 92.300781 186.316406 C 92.960938 186.011719 93.636719 185.726562 94.339844 185.46875 C 95.039062 185.207031 95.757812 184.972656 96.496094 184.761719 C 97.234375 184.550781 97.988281 184.367188 98.757812 184.210938 C 99.527344 184.050781 100.308594 183.917969 101.101562 183.816406 C 101.894531 183.710938 102.695312 183.632812 103.503906 183.582031 C 104.3125 183.53125 105.121094 183.507812 105.9375 183.511719 C 106.753906 183.515625 107.570312 183.546875 108.386719 183.605469 Z M 108.386719 183.605469 " fill-opacity="1" fill-rule="nonzero"/><path fill="#fda8a8" d="M 260.710938 191.851562 C 261.527344 191.910156 262.339844 191.996094 263.144531 192.109375 C 263.953125 192.222656 264.753906 192.363281 265.546875 192.527344 C 266.339844 192.695312 267.121094 192.886719 267.890625 193.105469 C 268.65625 193.324219 269.410156 193.566406 270.148438 193.832031 C 270.886719 194.101562 271.609375 194.390625 272.308594 194.707031 C 273.007812 195.019531 273.6875 195.355469 274.34375 195.714844 C 275 196.070312 275.628906 196.449219 276.234375 196.847656 C 276.839844 197.246094 277.417969 197.664062 277.964844 198.097656 C 278.511719 198.535156 279.03125 198.984375 279.515625 199.453125 C 280.003906 199.917969 280.457031 200.402344 280.875 200.894531 C 281.296875 201.390625 281.679688 201.898438 282.03125 202.417969 C 282.378906 202.933594 282.691406 203.460938 282.964844 204 C 283.242188 204.535156 283.476562 205.078125 283.675781 205.628906 C 283.875 206.175781 284.03125 206.730469 284.152344 207.285156 C 284.273438 207.84375 284.351562 208.402344 284.390625 208.960938 C 284.429688 209.519531 284.429688 210.078125 284.390625 210.632812 C 284.351562 211.191406 284.269531 211.742188 284.148438 212.289062 C 284.03125 212.835938 283.871094 213.378906 283.671875 213.914062 C 283.472656 214.445312 283.234375 214.972656 282.960938 215.484375 C 282.683594 216 282.371094 216.503906 282.023438 216.996094 C 281.671875 217.488281 281.289062 217.964844 280.867188 218.425781 C 280.449219 218.890625 279.996094 219.335938 279.507812 219.765625 C 279.019531 220.195312 278.503906 220.605469 277.953125 221 C 277.40625 221.390625 276.828125 221.761719 276.222656 222.113281 C 275.617188 222.464844 274.984375 222.796875 274.328125 223.101562 C 273.671875 223.410156 272.996094 223.691406 272.292969 223.953125 C 271.59375 224.214844 270.875 224.449219 270.136719 224.65625 C 269.394531 224.867188 268.640625 225.050781 267.875 225.210938 C 267.105469 225.367188 266.324219 225.5 265.53125 225.605469 C 264.738281 225.710938 263.9375 225.789062 263.128906 225.839844 C 262.320312 225.890625 261.507812 225.914062 260.695312 225.910156 C 259.878906 225.90625 259.0625 225.871094 258.246094 225.8125 C 257.429688 225.753906 256.617188 225.667969 255.808594 225.554688 C 255.003906 225.441406 254.203125 225.300781 253.410156 225.136719 C 252.617188 224.96875 251.835938 224.777344 251.066406 224.558594 C 250.296875 224.34375 249.542969 224.097656 248.804688 223.832031 C 248.066406 223.566406 247.347656 223.273438 246.648438 222.960938 C 245.949219 222.644531 245.269531 222.308594 244.613281 221.949219 C 243.957031 221.59375 243.328125 221.214844 242.722656 220.816406 C 242.117188 220.417969 241.539062 220 240.992188 219.566406 C 240.441406 219.132812 239.925781 218.679688 239.4375 218.210938 C 238.953125 217.746094 238.5 217.265625 238.078125 216.769531 C 237.660156 216.273438 237.277344 215.765625 236.925781 215.25 C 236.578125 214.730469 236.265625 214.203125 235.992188 213.667969 C 235.714844 213.128906 235.480469 212.585938 235.28125 212.039062 C 235.082031 211.488281 234.921875 210.933594 234.804688 210.378906 C 234.683594 209.820312 234.605469 209.261719 234.566406 208.703125 C 234.523438 208.144531 234.527344 207.585938 234.566406 207.03125 C 234.605469 206.476562 234.6875 205.921875 234.804688 205.375 C 234.925781 204.828125 235.085938 204.285156 235.285156 203.753906 C 235.484375 203.21875 235.722656 202.695312 235.996094 202.179688 C 236.273438 201.664062 236.585938 201.160156 236.933594 200.667969 C 237.285156 200.179688 237.667969 199.703125 238.089844 199.238281 C 238.507812 198.777344 238.960938 198.328125 239.449219 197.898438 C 239.9375 197.46875 240.453125 197.058594 241.003906 196.667969 C 241.550781 196.273438 242.128906 195.902344 242.734375 195.550781 C 243.339844 195.199219 243.96875 194.871094 244.625 194.5625 C 245.28125 194.253906 245.960938 193.972656 246.660156 193.710938 C 247.363281 193.453125 248.082031 193.21875 248.820312 193.007812 C 249.558594 192.796875 250.3125 192.613281 251.082031 192.453125 C 251.851562 192.296875 252.632812 192.164062 253.425781 192.058594 C 254.21875 191.953125 255.019531 191.875 255.828125 191.824219 C 256.632812 191.773438 257.445312 191.753906 258.261719 191.757812 C 259.078125 191.761719 259.894531 191.792969 260.710938 191.851562 Z M 260.710938 191.851562 " fill-opacity="1" fill-rule="nonzero"/><path fill="#b38181" d="M 151.59375 163.082031 C 152.183594 163.097656 152.765625 163.199219 153.339844 163.378906 C 153.914062 163.558594 154.46875 163.816406 155.003906 164.152344 C 155.542969 164.492188 156.046875 164.898438 156.527344 165.378906 C 157.003906 165.859375 157.441406 166.402344 157.84375 167.007812 C 158.242188 167.613281 158.597656 168.273438 158.90625 168.980469 C 159.214844 169.6875 159.46875 170.433594 159.671875 171.214844 C 159.875 171.996094 160.023438 172.800781 160.117188 173.628906 C 160.207031 174.453125 160.242188 175.289062 160.214844 176.125 C 160.191406 176.964844 160.109375 177.796875 159.972656 178.617188 C 159.832031 179.4375 159.640625 180.230469 159.390625 181 C 159.140625 181.769531 158.84375 182.5 158.496094 183.1875 C 158.148438 183.875 157.757812 184.511719 157.320312 185.09375 C 156.886719 185.675781 156.417969 186.191406 155.914062 186.644531 C 155.410156 187.097656 154.878906 187.476562 154.324219 187.78125 C 153.769531 188.085938 153.199219 188.3125 152.617188 188.460938 C 152.03125 188.609375 151.445312 188.671875 150.855469 188.65625 C 150.265625 188.640625 149.683594 188.539062 149.109375 188.359375 C 148.535156 188.179688 147.980469 187.921875 147.441406 187.582031 C 146.90625 187.246094 146.398438 186.839844 145.921875 186.355469 C 145.445312 185.875 145.003906 185.332031 144.605469 184.726562 C 144.203125 184.121094 143.851562 183.464844 143.542969 182.757812 C 143.234375 182.050781 142.980469 181.304688 142.773438 180.523438 C 142.570312 179.742188 142.425781 178.9375 142.332031 178.109375 C 142.242188 177.285156 142.207031 176.449219 142.230469 175.609375 C 142.253906 174.769531 142.335938 173.941406 142.476562 173.121094 C 142.613281 172.300781 142.808594 171.507812 143.058594 170.738281 C 143.304688 169.96875 143.601562 169.238281 143.953125 168.550781 C 144.300781 167.859375 144.691406 167.226562 145.125 166.644531 C 145.558594 166.0625 146.03125 165.546875 146.535156 165.09375 C 147.039062 164.640625 147.566406 164.261719 148.121094 163.957031 C 148.675781 163.652344 149.246094 163.425781 149.832031 163.277344 C 150.414062 163.128906 151 163.066406 151.59375 163.082031 Z M 151.59375 163.082031 " fill-opacity="1" fill-rule="nonzero"/><path fill="#b38181" d="M 223.832031 165.152344 C 224.421875 165.167969 225.003906 165.269531 225.578125 165.449219 C 226.15625 165.628906 226.710938 165.886719 227.246094 166.226562 C 227.78125 166.5625 228.289062 166.96875 228.765625 167.449219 C 229.242188 167.929688 229.683594 168.476562 230.082031 169.082031 C 230.484375 169.6875 230.839844 170.34375 231.144531 171.050781 C 231.453125 171.757812 231.710938 172.503906 231.914062 173.285156 C 232.117188 174.066406 232.265625 174.871094 232.355469 175.699219 C 232.449219 176.523438 232.480469 177.359375 232.457031 178.199219 C 232.433594 179.039062 232.351562 179.867188 232.210938 180.6875 C 232.074219 181.507812 231.878906 182.300781 231.632812 183.070312 C 231.382812 183.839844 231.085938 184.570312 230.738281 185.257812 C 230.386719 185.945312 229.996094 186.582031 229.5625 187.164062 C 229.128906 187.746094 228.660156 188.261719 228.152344 188.714844 C 227.648438 189.167969 227.121094 189.546875 226.566406 189.851562 C 226.011719 190.15625 225.441406 190.382812 224.859375 190.53125 C 224.273438 190.679688 223.6875 190.742188 223.097656 190.726562 C 222.503906 190.710938 221.921875 190.609375 221.347656 190.429688 C 220.773438 190.25 220.21875 189.992188 219.683594 189.65625 C 219.148438 189.316406 218.640625 188.910156 218.164062 188.429688 C 217.683594 187.949219 217.246094 187.40625 216.84375 186.796875 C 216.445312 186.191406 216.089844 185.535156 215.78125 184.828125 C 215.476562 184.121094 215.21875 183.375 215.015625 182.59375 C 214.8125 181.8125 214.664062 181.007812 214.574219 180.179688 C 214.480469 179.355469 214.449219 178.519531 214.472656 177.679688 C 214.496094 176.839844 214.578125 176.011719 214.714844 175.191406 C 214.855469 174.371094 215.050781 173.578125 215.296875 172.808594 C 215.546875 172.039062 215.84375 171.308594 216.191406 170.621094 C 216.539062 169.933594 216.929688 169.296875 217.367188 168.714844 C 217.800781 168.132812 218.269531 167.617188 218.773438 167.164062 C 219.277344 166.710938 219.808594 166.332031 220.363281 166.027344 C 220.917969 165.722656 221.488281 165.496094 222.070312 165.347656 C 222.65625 165.199219 223.242188 165.136719 223.832031 165.152344 Z M 223.832031 165.152344 " fill-opacity="1" fill-rule="nonzero"/></svg>