<svg xmlns="http://www.w3.org/2000/svg" xmlns:xlink="http://www.w3.org/1999/xlink" zoomAndPan="magnify" preserveAspectRatio="xMidYMid meet" version="1.0" viewBox="9.7 142.1 340.8 84.75"><defs><g/><clipPath id="e884c389b7"><path d="M 9.65625 142.101562 L 120.65625 142.101562 L 120.65625 226.851562 L 9.65625 226.851562 Z M 9.65625 142.101562 " clip-rule="nonzero"/></clipPath></defs><g clip-path="url(#e884c389b7)"><path fill="#ffe8e3" d="M 95.8125 165.976562 C 95.8125 165.976562 113.152344 170.160156 118.425781 182.910156 C 123.699219 195.667969 119.644531 214.742188 104.222656 220.863281 C 88.808594 226.972656 80.054688 218.367188 80.054688 218.367188 C 80.054688 218.367188 71.105469 229.613281 57.664062 226.210938 C 44.226562 222.816406 42.472656 214.53125 42.472656 214.53125 C 42.472656 214.53125 29.960938 217.953125 19.171875 210.765625 C 8.382812 203.582031 4.816406 176.082031 19.171875 167.324219 C 33.523438 158.5625 42.472656 164.445312 42.472656 164.445312 C 42.472656 164.445312 43.738281 151.675781 57.664062 144.871094 C 71.59375 138.066406 85.667969 145.007812 90.953125 152.65625 C 96.246094 160.304688 95.8125 165.976562 95.8125 165.976562 Z M 95.8125 165.976562 " fill-opacity="1" fill-rule="evenodd"/></g><path fill="#b38181" d="M 57.355469 196.816406 C 57.355469 196.816406 60.324219 200.226562 64.480469 200.398438 C 68.675781 200.574219 71.890625 196.808594 71.890625 196.808594 C 72.273438 196.351562 72.214844 195.667969 71.753906 195.28125 C 71.296875 194.898438 70.613281 194.957031 70.230469 195.417969 C 70.230469 195.417969 67.789062 198.375 64.566406 198.238281 C 61.304688 198.105469 58.984375 195.40625 58.984375 195.40625 C 58.589844 194.957031 57.910156 194.910156 57.457031 195.296875 C 57.015625 195.683594 56.960938 196.375 57.355469 196.816406 Z M 57.355469 196.816406 " fill-opacity="1" fill-rule="evenodd"/><path fill="#fda8a8" d="M 40.929688 186.84375 C 41.429688 186.878906 41.921875 186.949219 42.410156 187.050781 C 42.894531 187.15625 43.363281 187.289062 43.816406 187.453125 C 44.269531 187.617188 44.695312 187.808594 45.097656 188.027344 C 45.5 188.246094 45.871094 188.492188 46.207031 188.757812 C 46.542969 189.023438 46.839844 189.308594 47.097656 189.613281 C 47.355469 189.917969 47.566406 190.234375 47.734375 190.566406 C 47.902344 190.894531 48.023438 191.230469 48.097656 191.570312 C 48.171875 191.914062 48.195312 192.253906 48.171875 192.597656 C 48.144531 192.9375 48.074219 193.273438 47.949219 193.601562 C 47.828125 193.929688 47.660156 194.242188 47.445312 194.542969 C 47.234375 194.847656 46.976562 195.128906 46.675781 195.394531 C 46.378906 195.65625 46.042969 195.894531 45.671875 196.113281 C 45.300781 196.328125 44.902344 196.515625 44.472656 196.675781 C 44.042969 196.835938 43.59375 196.964844 43.121094 197.058594 C 42.648438 197.15625 42.164062 197.222656 41.671875 197.253906 C 41.175781 197.285156 40.675781 197.28125 40.175781 197.246094 C 39.675781 197.207031 39.183594 197.140625 38.699219 197.039062 C 38.210938 196.933594 37.742188 196.800781 37.289062 196.636719 C 36.839844 196.472656 36.410156 196.28125 36.007812 196.0625 C 35.605469 195.84375 35.238281 195.597656 34.902344 195.332031 C 34.566406 195.066406 34.269531 194.777344 34.011719 194.476562 C 33.753906 194.171875 33.542969 193.855469 33.371094 193.523438 C 33.203125 193.195312 33.082031 192.859375 33.011719 192.519531 C 32.9375 192.175781 32.914062 191.835938 32.9375 191.492188 C 32.960938 191.152344 33.035156 190.816406 33.15625 190.488281 C 33.277344 190.160156 33.445312 189.847656 33.660156 189.546875 C 33.875 189.242188 34.132812 188.960938 34.429688 188.695312 C 34.726562 188.433594 35.0625 188.195312 35.433594 187.976562 C 35.804688 187.761719 36.207031 187.574219 36.636719 187.414062 C 37.066406 187.253906 37.515625 187.125 37.988281 187.03125 C 38.457031 186.933594 38.941406 186.867188 39.4375 186.835938 C 39.933594 186.804688 40.429688 186.808594 40.929688 186.84375 Z M 40.929688 186.84375 " fill-opacity="1" fill-rule="nonzero"/><path fill="#fda8a8" d="M 87.503906 189.371094 C 88.003906 189.40625 88.496094 189.476562 88.980469 189.578125 C 89.46875 189.679688 89.9375 189.8125 90.390625 189.976562 C 90.84375 190.140625 91.269531 190.332031 91.671875 190.550781 C 92.074219 190.773438 92.441406 191.015625 92.777344 191.28125 C 93.113281 191.550781 93.410156 191.835938 93.667969 192.140625 C 93.925781 192.441406 94.140625 192.761719 94.308594 193.089844 C 94.476562 193.417969 94.597656 193.753906 94.671875 194.097656 C 94.742188 194.4375 94.769531 194.78125 94.742188 195.121094 C 94.71875 195.460938 94.644531 195.796875 94.523438 196.125 C 94.402344 196.453125 94.234375 196.769531 94.019531 197.070312 C 93.804688 197.371094 93.546875 197.652344 93.25 197.917969 C 92.953125 198.179688 92.617188 198.421875 92.246094 198.636719 C 91.875 198.851562 91.472656 199.039062 91.042969 199.199219 C 90.613281 199.359375 90.164062 199.488281 89.691406 199.585938 C 89.222656 199.683594 88.738281 199.746094 88.242188 199.777344 C 87.746094 199.808594 87.25 199.804688 86.75 199.769531 C 86.25 199.734375 85.757812 199.664062 85.269531 199.5625 C 84.785156 199.460938 84.316406 199.328125 83.863281 199.164062 C 83.410156 199 82.984375 198.808594 82.582031 198.585938 C 82.179688 198.367188 81.808594 198.125 81.472656 197.855469 C 81.136719 197.589844 80.839844 197.304688 80.582031 197 C 80.328125 196.695312 80.113281 196.378906 79.945312 196.050781 C 79.777344 195.71875 79.65625 195.386719 79.582031 195.042969 C 79.507812 194.699219 79.484375 194.359375 79.507812 194.019531 C 79.535156 193.675781 79.609375 193.34375 79.730469 193.015625 C 79.851562 192.6875 80.019531 192.371094 80.234375 192.070312 C 80.449219 191.769531 80.703125 191.484375 81.003906 191.222656 C 81.300781 190.957031 81.636719 190.71875 82.007812 190.503906 C 82.378906 190.285156 82.777344 190.097656 83.207031 189.9375 C 83.636719 189.78125 84.089844 189.652344 84.558594 189.554688 C 85.03125 189.457031 85.515625 189.394531 86.011719 189.363281 C 86.503906 189.332031 87.003906 189.332031 87.503906 189.371094 Z M 87.503906 189.371094 " fill-opacity="1" fill-rule="nonzero"/><path fill="#b38181" d="M 54.140625 180.558594 C 54.503906 180.570312 54.851562 180.679688 55.183594 180.886719 C 55.515625 181.097656 55.804688 181.386719 56.050781 181.761719 C 56.300781 182.136719 56.484375 182.566406 56.609375 183.050781 C 56.738281 183.535156 56.792969 184.035156 56.777344 184.554688 C 56.761719 185.074219 56.679688 185.570312 56.523438 186.046875 C 56.371094 186.523438 56.160156 186.941406 55.890625 187.300781 C 55.625 187.660156 55.320312 187.933594 54.976562 188.121094 C 54.632812 188.3125 54.28125 188.402344 53.914062 188.390625 C 53.550781 188.378906 53.203125 188.269531 52.871094 188.0625 C 52.539062 187.855469 52.25 187.5625 52.003906 187.1875 C 51.757812 186.8125 51.570312 186.382812 51.445312 185.902344 C 51.320312 185.417969 51.261719 184.914062 51.277344 184.394531 C 51.292969 183.875 51.378906 183.378906 51.53125 182.902344 C 51.683594 182.429688 51.894531 182.011719 52.164062 181.648438 C 52.433594 181.289062 52.738281 181.015625 53.078125 180.828125 C 53.421875 180.636719 53.777344 180.546875 54.140625 180.558594 Z M 54.140625 180.558594 " fill-opacity="1" fill-rule="nonzero"/><path fill="#b38181" d="M 76.226562 181.195312 C 76.59375 181.203125 76.941406 181.3125 77.269531 181.523438 C 77.601562 181.730469 77.890625 182.023438 78.140625 182.394531 C 78.386719 182.769531 78.574219 183.199219 78.699219 183.683594 C 78.824219 184.167969 78.878906 184.667969 78.863281 185.1875 C 78.851562 185.707031 78.765625 186.203125 78.613281 186.679688 C 78.457031 187.15625 78.25 187.574219 77.980469 187.933594 C 77.710938 188.292969 77.40625 188.566406 77.0625 188.757812 C 76.722656 188.945312 76.367188 189.035156 76.003906 189.023438 C 75.636719 189.015625 75.289062 188.90625 74.960938 188.695312 C 74.628906 188.488281 74.339844 188.195312 74.089844 187.820312 C 73.84375 187.449219 73.65625 187.019531 73.53125 186.535156 C 73.40625 186.050781 73.351562 185.550781 73.367188 185.03125 C 73.378906 184.511719 73.464844 184.011719 73.617188 183.539062 C 73.773438 183.0625 73.980469 182.644531 74.25 182.285156 C 74.519531 181.925781 74.824219 181.648438 75.167969 181.460938 C 75.507812 181.273438 75.863281 181.183594 76.226562 181.195312 Z M 76.226562 181.195312 " fill-opacity="1" fill-rule="nonzero"/><g fill="#545454" fill-opacity="1"><g transform="translate(128.773647, 189.963885)"><g><path d="M 19.34375 -21.203125 L 19.234375 -23.3125 C 19.234375 -23.914062 19.03125 -24.421875 18.625 -24.828125 C 18.21875 -25.234375 17.71875 -25.4375 17.125 -25.4375 L 12.71875 -25.4375 C 12.113281 -25.4375 11.609375 -25.234375 11.203125 -24.828125 C 10.796875 -24.421875 10.59375 -23.914062 10.59375 -23.3125 L 10.0625 -6.359375 C 10.0625 -5.753906 10.265625 -5.25 10.671875 -4.84375 C 11.078125 -4.4375 11.582031 -4.234375 12.1875 -4.234375 L 14.84375 -4.234375 C 16.007812 -4.234375 17.023438 -4.648438 17.890625 -5.484375 C 18.753906 -6.316406 19.1875 -7.316406 19.1875 -8.484375 L 19.140625 -10.59375 C 19.140625 -11.195312 18.941406 -11.703125 18.546875 -12.109375 C 18.160156 -12.515625 17.664062 -12.71875 17.0625 -12.71875 L 15.90625 -12.71875 L 17.015625 -16.953125 L 25.171875 -16.953125 C 25.773438 -16.953125 26.28125 -16.75 26.6875 -16.34375 C 27.09375 -15.9375 27.296875 -15.4375 27.296875 -14.84375 L 27.03125 0 L 19.609375 0 L 19.296875 -3.1875 L 17.125 0 L 6.9375 0 C 5.769531 0 4.769531 -0.410156 3.9375 -1.234375 C 3.113281 -2.066406 2.703125 -3.066406 2.703125 -4.234375 L 2.125 -25.4375 C 2.125 -26.601562 2.535156 -27.601562 3.359375 -28.4375 C 4.191406 -29.269531 5.191406 -29.6875 6.359375 -29.6875 L 17.546875 -29.6875 L 19.1875 -27.5625 L 19.078125 -29.6875 L 27.5625 -29.6875 L 27.40625 -21.203125 Z M 19.34375 -21.203125 "/></g></g></g><g fill="#545454" fill-opacity="1"><g transform="translate(159.720987, 189.963885)"><g><path d="M 14.84375 -4.234375 C 16.007812 -4.234375 17.003906 -4.648438 17.828125 -5.484375 C 18.660156 -6.316406 19.078125 -7.316406 19.078125 -8.484375 L 11.65625 -8.484375 C 11.375 -8.484375 11.125 -8.375 10.90625 -8.15625 C 10.695312 -7.945312 10.59375 -7.703125 10.59375 -7.421875 L 10.59375 -5.296875 C 10.59375 -5.015625 10.695312 -4.765625 10.90625 -4.546875 C 11.125 -4.335938 11.375 -4.234375 11.65625 -4.234375 Z M 6.625 0 C 5.457031 0 4.457031 -0.410156 3.625 -1.234375 C 2.800781 -2.066406 2.390625 -3.066406 2.390625 -4.234375 L 2.125 -8.484375 C 2.125 -9.648438 2.535156 -10.644531 3.359375 -11.46875 C 4.191406 -12.300781 5.191406 -12.71875 6.359375 -12.71875 L 18.015625 -12.71875 C 18.296875 -12.71875 18.539062 -12.820312 18.75 -13.03125 C 18.96875 -13.25 19.078125 -13.5 19.078125 -13.78125 L 19.078125 -15.90625 C 19.078125 -16.1875 18.96875 -16.429688 18.75 -16.640625 C 18.539062 -16.847656 18.296875 -16.953125 18.015625 -16.953125 L 11.65625 -16.953125 C 11.375 -16.953125 11.125 -16.847656 10.90625 -16.640625 C 10.695312 -16.429688 10.59375 -16.1875 10.59375 -15.90625 L 10.328125 -14.84375 L 2.390625 -14.84375 L 2.125 -16.953125 C 2.125 -18.117188 2.535156 -19.117188 3.359375 -19.953125 C 4.191406 -20.785156 5.191406 -21.203125 6.359375 -21.203125 L 23.3125 -21.203125 C 24.476562 -21.203125 25.476562 -20.785156 26.3125 -19.953125 C 27.144531 -19.117188 27.5625 -18.117188 27.5625 -16.953125 L 27.03125 0 L 19.34375 0 L 19.078125 -3.1875 L 16.953125 0 Z M 6.625 0 "/></g></g></g><g fill="#545454" fill-opacity="1"><g transform="translate(190.668328, 189.963885)"><g><path d="M 24.859375 -21.203125 L 31.796875 -21.203125 C 32.960938 -21.203125 33.960938 -20.785156 34.796875 -19.953125 C 35.628906 -19.117188 36.046875 -18.117188 36.046875 -16.953125 L 35.515625 0 L 28.09375 0 L 27.5625 -15.90625 C 27.5625 -16.1875 27.453125 -16.429688 27.234375 -16.640625 C 27.023438 -16.847656 26.78125 -16.953125 26.5 -16.953125 L 24.375 -16.953125 C 24.019531 -16.953125 23.738281 -16.847656 23.53125 -16.640625 C 23.320312 -16.429688 23.21875 -16.1875 23.21875 -15.90625 L 22.796875 0 L 15.375 0 L 14.84375 -15.90625 C 14.84375 -16.1875 14.734375 -16.429688 14.515625 -16.640625 C 14.304688 -16.847656 14.0625 -16.953125 13.78125 -16.953125 L 11.65625 -16.953125 C 11.375 -16.953125 11.125 -16.847656 10.90625 -16.640625 C 10.695312 -16.429688 10.59375 -16.1875 10.59375 -15.90625 L 10.0625 0 L 2.390625 0 L 2.125 -21.203125 L 10.0625 -21.203125 L 10.59375 -19.078125 L 12.71875 -21.203125 L 19.078125 -21.203125 C 19.890625 -21.203125 20.601562 -21.003906 21.21875 -20.609375 C 21.84375 -20.222656 22.347656 -19.710938 22.734375 -19.078125 Z M 24.859375 -21.203125 "/></g></g></g><g fill="#545454" fill-opacity="1"><g transform="translate(230.094423, 189.963885)"><g><path d="M 10.546875 -13.78125 L 19.140625 -13.78125 L 19.078125 -14.84375 C 19.078125 -15.4375 18.875 -15.9375 18.46875 -16.34375 C 18.0625 -16.75 17.554688 -16.953125 16.953125 -16.953125 L 12.71875 -16.953125 C 12.113281 -16.953125 11.609375 -16.75 11.203125 -16.34375 C 10.796875 -15.9375 10.59375 -15.4375 10.59375 -14.84375 Z M 17.4375 -4.234375 C 18.039062 -4.234375 18.523438 -4.4375 18.890625 -4.84375 C 19.265625 -5.25 19.453125 -5.753906 19.453125 -6.359375 L 27.078125 -6.359375 L 27.03125 -4.234375 C 27.03125 -3.066406 26.613281 -2.066406 25.78125 -1.234375 C 24.945312 -0.410156 23.953125 0 22.796875 0 L 6.890625 0 C 5.722656 0 4.722656 -0.410156 3.890625 -1.234375 C 3.066406 -2.066406 2.65625 -3.066406 2.65625 -4.234375 L 2.125 -16.953125 C 2.125 -18.117188 2.535156 -19.117188 3.359375 -19.953125 C 4.191406 -20.785156 5.191406 -21.203125 6.359375 -21.203125 L 23.3125 -21.203125 C 24.476562 -21.203125 25.476562 -20.785156 26.3125 -19.953125 C 27.144531 -19.117188 27.5625 -18.117188 27.5625 -16.953125 L 27.296875 -9.546875 L 10.4375 -9.546875 L 10.328125 -6.359375 C 10.328125 -5.753906 10.53125 -5.25 10.9375 -4.84375 C 11.34375 -4.4375 11.847656 -4.234375 12.453125 -4.234375 Z M 17.4375 -4.234375 "/></g></g></g><g fill="#545454" fill-opacity="1"><g transform="translate(261.041763, 189.963885)"><g><path d="M 16.953125 -4.234375 C 17.554688 -4.234375 18.0625 -4.4375 18.46875 -4.84375 C 18.875 -5.25 19.078125 -5.753906 19.078125 -6.359375 L 19.078125 -14.84375 C 19.078125 -15.4375 18.875 -15.9375 18.46875 -16.34375 C 18.0625 -16.75 17.554688 -16.953125 16.953125 -16.953125 L 12.71875 -16.953125 C 12.113281 -16.953125 11.609375 -16.75 11.203125 -16.34375 C 10.796875 -15.9375 10.59375 -15.4375 10.59375 -14.84375 L 10.59375 -6.359375 C 10.59375 -5.753906 10.796875 -5.25 11.203125 -4.84375 C 11.609375 -4.4375 12.113281 -4.234375 12.71875 -4.234375 Z M 27.03125 -29.6875 L 27.5625 0 L 19.34375 0 L 19.078125 -2.125 L 16.953125 0 L 6.359375 0 C 5.191406 0 4.191406 -0.410156 3.359375 -1.234375 C 2.535156 -2.066406 2.125 -3.066406 2.125 -4.234375 L 2.65625 -16.953125 C 2.65625 -18.117188 3.066406 -19.117188 3.890625 -19.953125 C 4.722656 -20.785156 5.722656 -21.203125 6.890625 -21.203125 L 18.015625 -21.203125 C 18.296875 -21.203125 18.539062 -21.304688 18.75 -21.515625 C 18.96875 -21.734375 19.078125 -21.984375 19.078125 -22.265625 L 19.609375 -29.6875 Z M 27.03125 -29.6875 "/></g></g></g><g fill="#545454" fill-opacity="1"><g transform="translate(291.989103, 189.963885)"><g><path d="M 14.84375 -4.234375 C 16.007812 -4.234375 17.003906 -4.648438 17.828125 -5.484375 C 18.660156 -6.316406 19.078125 -7.316406 19.078125 -8.484375 L 11.65625 -8.484375 C 11.375 -8.484375 11.125 -8.375 10.90625 -8.15625 C 10.695312 -7.945312 10.59375 -7.703125 10.59375 -7.421875 L 10.59375 -5.296875 C 10.59375 -5.015625 10.695312 -4.765625 10.90625 -4.546875 C 11.125 -4.335938 11.375 -4.234375 11.65625 -4.234375 Z M 6.625 0 C 5.457031 0 4.457031 -0.410156 3.625 -1.234375 C 2.800781 -2.066406 2.390625 -3.066406 2.390625 -4.234375 L 2.125 -8.484375 C 2.125 -9.648438 2.535156 -10.644531 3.359375 -11.46875 C 4.191406 -12.300781 5.191406 -12.71875 6.359375 -12.71875 L 18.015625 -12.71875 C 18.296875 -12.71875 18.539062 -12.820312 18.75 -13.03125 C 18.96875 -13.25 19.078125 -13.5 19.078125 -13.78125 L 19.078125 -15.90625 C 19.078125 -16.1875 18.96875 -16.429688 18.75 -16.640625 C 18.539062 -16.847656 18.296875 -16.953125 18.015625 -16.953125 L 11.65625 -16.953125 C 11.375 -16.953125 11.125 -16.847656 10.90625 -16.640625 C 10.695312 -16.429688 10.59375 -16.1875 10.59375 -15.90625 L 10.328125 -14.84375 L 2.390625 -14.84375 L 2.125 -16.953125 C 2.125 -18.117188 2.535156 -19.117188 3.359375 -19.953125 C 4.191406 -20.785156 5.191406 -21.203125 6.359375 -21.203125 L 23.3125 -21.203125 C 24.476562 -21.203125 25.476562 -20.785156 26.3125 -19.953125 C 27.144531 -19.117188 27.5625 -18.117188 27.5625 -16.953125 L 27.03125 0 L 19.34375 0 L 19.078125 -3.1875 L 16.953125 0 Z M 6.625 0 "/></g></g></g><g fill="#545454" fill-opacity="1"><g transform="translate(322.936431, 189.963885)"><g><path d="M 10.59375 -6.359375 C 10.59375 -5.753906 10.796875 -5.25 11.203125 -4.84375 C 11.609375 -4.4375 12.113281 -4.234375 12.71875 -4.234375 L 16.953125 -4.234375 C 17.554688 -4.234375 18.0625 -4.4375 18.46875 -4.84375 C 18.875 -5.25 19.078125 -5.753906 19.078125 -6.359375 L 19.609375 -21.203125 L 27.03125 -21.203125 L 27.5625 4.234375 C 27.5625 5.398438 27.144531 6.398438 26.3125 7.234375 C 25.476562 8.066406 24.476562 8.484375 23.3125 8.484375 L 6.359375 8.484375 C 5.191406 8.484375 4.191406 8.066406 3.359375 7.234375 C 2.535156 6.398438 2.125 5.398438 2.125 4.234375 L 2.390625 2.125 L 10.4375 2.125 L 10.59375 3.1875 C 10.59375 3.46875 10.695312 3.710938 10.90625 3.921875 C 11.125 4.128906 11.375 4.234375 11.65625 4.234375 L 18.015625 4.234375 C 18.296875 4.234375 18.539062 4.128906 18.75 3.921875 C 18.96875 3.710938 19.078125 3.46875 19.078125 3.1875 L 19.1875 1.0625 C 19.1875 0.78125 19.078125 0.53125 18.859375 0.3125 C 18.648438 0.101562 18.40625 0 18.125 0 L 6.359375 0 C 5.191406 0 4.191406 -0.410156 3.359375 -1.234375 C 2.535156 -2.066406 2.125 -3.066406 2.125 -4.234375 L 2.65625 -21.203125 L 10.0625 -21.203125 Z M 10.59375 -6.359375 "/></g></g></g><g fill="#ff3131" fill-opacity="1"><g transform="translate(183.38302, 219.163872)"><g><path d="M 11.765625 -3.359375 C 12.679688 -3.359375 13.46875 -3.6875 14.125 -4.34375 C 14.789062 -5 15.125 -5.789062 15.125 -6.71875 L 9.234375 -6.71875 C 9.015625 -6.71875 8.820312 -6.632812 8.65625 -6.46875 C 8.488281 -6.300781 8.40625 -6.101562 8.40625 -5.875 L 8.40625 -4.203125 C 8.40625 -3.972656 8.488281 -3.773438 8.65625 -3.609375 C 8.820312 -3.441406 9.015625 -3.359375 9.234375 -3.359375 Z M 5.25 0 C 4.320312 0 3.53125 -0.328125 2.875 -0.984375 C 2.21875 -1.640625 1.890625 -2.429688 1.890625 -3.359375 L 1.6875 -6.71875 C 1.6875 -7.644531 2.015625 -8.4375 2.671875 -9.09375 C 3.328125 -9.75 4.117188 -10.078125 5.046875 -10.078125 L 14.28125 -10.078125 C 14.5 -10.078125 14.691406 -10.160156 14.859375 -10.328125 C 15.035156 -10.492188 15.125 -10.691406 15.125 -10.921875 L 15.125 -12.59375 C 15.125 -12.820312 15.035156 -13.019531 14.859375 -13.1875 C 14.691406 -13.351562 14.5 -13.4375 14.28125 -13.4375 L 9.234375 -13.4375 C 9.015625 -13.4375 8.820312 -13.351562 8.65625 -13.1875 C 8.488281 -13.019531 8.40625 -12.820312 8.40625 -12.59375 L 8.1875 -11.765625 L 1.890625 -11.765625 L 1.6875 -13.4375 C 1.6875 -14.363281 2.015625 -15.15625 2.671875 -15.8125 C 3.328125 -16.46875 4.117188 -16.796875 5.046875 -16.796875 L 18.484375 -16.796875 C 19.398438 -16.796875 20.1875 -16.46875 20.84375 -15.8125 C 21.507812 -15.15625 21.84375 -14.363281 21.84375 -13.4375 L 21.421875 0 L 15.328125 0 L 15.125 -2.515625 L 13.4375 0 Z M 5.25 0 "/></g></g></g><g fill="#ff3131" fill-opacity="1"><g transform="translate(207.911015, 219.163872)"><g><path d="M 13.4375 -3.359375 C 13.914062 -3.359375 14.316406 -3.519531 14.640625 -3.84375 C 14.960938 -4.164062 15.125 -4.566406 15.125 -5.046875 L 15.125 -11.765625 C 15.125 -12.234375 14.960938 -12.628906 14.640625 -12.953125 C 14.316406 -13.273438 13.914062 -13.4375 13.4375 -13.4375 L 10.078125 -13.4375 C 9.597656 -13.4375 9.195312 -13.273438 8.875 -12.953125 C 8.5625 -12.628906 8.40625 -12.234375 8.40625 -11.765625 L 8.40625 -5.046875 C 8.40625 -4.566406 8.5625 -4.164062 8.875 -3.84375 C 9.195312 -3.519531 9.597656 -3.359375 10.078125 -3.359375 Z M 21.421875 -23.515625 L 21.84375 0 L 15.328125 0 L 15.125 -1.6875 L 13.4375 0 L 5.046875 0 C 4.117188 0 3.328125 -0.328125 2.671875 -0.984375 C 2.015625 -1.640625 1.6875 -2.429688 1.6875 -3.359375 L 2.09375 -13.4375 C 2.09375 -14.363281 2.421875 -15.15625 3.078125 -15.8125 C 3.742188 -16.46875 4.535156 -16.796875 5.453125 -16.796875 L 14.28125 -16.796875 C 14.5 -16.796875 14.691406 -16.878906 14.859375 -17.046875 C 15.035156 -17.210938 15.125 -17.410156 15.125 -17.640625 L 15.546875 -23.515625 Z M 21.421875 -23.515625 "/></g></g></g><g fill="#ff3131" fill-opacity="1"><g transform="translate(232.43901, 219.163872)"><g><path d="M 19.703125 -16.796875 L 25.203125 -16.796875 C 26.128906 -16.796875 26.921875 -16.46875 27.578125 -15.8125 C 28.234375 -15.15625 28.5625 -14.363281 28.5625 -13.4375 L 28.140625 0 L 22.265625 0 L 21.84375 -12.59375 C 21.84375 -12.820312 21.757812 -13.019531 21.59375 -13.1875 C 21.425781 -13.351562 21.226562 -13.4375 21 -13.4375 L 19.3125 -13.4375 C 19.039062 -13.4375 18.816406 -13.351562 18.640625 -13.1875 C 18.472656 -13.019531 18.390625 -12.820312 18.390625 -12.59375 L 18.0625 0 L 12.1875 0 L 11.765625 -12.59375 C 11.765625 -12.820312 11.675781 -13.019531 11.5 -13.1875 C 11.332031 -13.351562 11.140625 -13.4375 10.921875 -13.4375 L 9.234375 -13.4375 C 9.015625 -13.4375 8.820312 -13.351562 8.65625 -13.1875 C 8.488281 -13.019531 8.40625 -12.820312 8.40625 -12.59375 L 7.984375 0 L 1.890625 0 L 1.6875 -16.796875 L 7.984375 -16.796875 L 8.40625 -15.125 L 10.078125 -16.796875 L 15.125 -16.796875 C 15.769531 -16.796875 16.335938 -16.640625 16.828125 -16.328125 C 17.316406 -16.023438 17.710938 -15.625 18.015625 -15.125 Z M 19.703125 -16.796875 "/></g></g></g><g fill="#ff3131" fill-opacity="1"><g transform="translate(263.687008, 219.163872)"><g><path d="M 1.6875 -21.84375 C 1.6875 -22.757812 2.015625 -23.546875 2.671875 -24.203125 C 3.328125 -24.867188 4.117188 -25.203125 5.046875 -25.203125 C 5.960938 -25.203125 6.75 -24.867188 7.40625 -24.203125 C 8.070312 -23.546875 8.40625 -22.757812 8.40625 -21.84375 C 8.40625 -20.914062 8.070312 -20.125 7.40625 -19.46875 C 6.75 -18.8125 5.960938 -18.484375 5.046875 -18.484375 C 4.117188 -18.484375 3.328125 -18.8125 2.671875 -19.46875 C 2.015625 -20.125 1.6875 -20.914062 1.6875 -21.84375 Z M 8.40625 -16.796875 L 7.984375 0 L 2.09375 0 L 1.6875 -16.796875 Z M 8.40625 -16.796875 "/></g></g></g><g fill="#ff3131" fill-opacity="1"><g transform="translate(274.775005, 219.163872)"><g><path d="M 1.6875 -16.796875 L 7.984375 -16.796875 L 8.40625 -15.125 L 10.078125 -16.796875 L 18.484375 -16.796875 C 19.398438 -16.796875 20.1875 -16.46875 20.84375 -15.8125 C 21.507812 -15.15625 21.84375 -14.363281 21.84375 -13.4375 L 21.421875 0 L 15.546875 0 L 15.125 -12.59375 C 15.125 -12.820312 15.035156 -13.019531 14.859375 -13.1875 C 14.691406 -13.351562 14.5 -13.4375 14.28125 -13.4375 L 9.234375 -13.4375 C 9.015625 -13.4375 8.820312 -13.351562 8.65625 -13.1875 C 8.488281 -13.019531 8.40625 -12.820312 8.40625 -12.59375 L 7.984375 0 L 1.890625 0 Z M 1.6875 -16.796875 "/></g></g></g></svg>